<svg width="40" height="41" xmlns="http://www.w3.org/2000/svg" fill="none">
    <defs>
        <clipPath id="clip0_2_11">
            <rect width="40" height="41" fill="white" id="svg_1"/>
        </clipPath>
    </defs>
    <g>
        <title>Layer 1</title>
        <g clip-path="url(#clip0_2_11)" id="svg_2">
            <path d="m10.8481,1.04421c-3.53055,2.26574 -5.91713,6.26526 -5.91713,10.83609c0,4.5709 2.38658,8.5704 5.97633,10.8362c-6.05523,0 -10.9073,-4.8467 -10.9073,-10.8362c0,-2.87388 1.14292,-5.63009 3.17734,-7.66226c2.03442,-2.03217 4.79368,-3.17383 7.67076,-3.17383z" fill="#6107b5" id="svg_3"/>
            <path d="m14.9704,15.8996l-2.288,-1.4383l-2.209,1.5368l0.6706,-2.6007l-2.14992,-1.6353l2.68242,-0.1773l0.8876,-2.54155l1.0059,2.50215l2.6825,0.0591l-2.071,1.7141l0.7889,2.581z" fill="#6107b5" id="svg_4"/>
            <path d="m21.4793,8.78712l-2.9191,-1.83229l-2.8403,1.9702l0.8284,-3.34935l-2.7416,-2.08841l3.4517,-0.23643l1.144,-3.25084l1.3215,3.21144l3.4122,0.0591l-2.6627,2.22634l1.0059,3.29024z" fill="#6107b5" id="svg_5"/>
            <path d="m33.6686,3.99952l2.8205,2.81739l-30.71,30.67609l-2.82051,-2.8174l30.71001,-30.67608z" fill="#6107b5" id="svg_6"/>
            <path d="m33.5306,23.7016c0,2.8739 -1.143,5.6301 -3.1774,7.6623c-2.0344,2.0322 -4.7937,3.1738 -7.6708,3.1738c-2.4063,0 -4.6351,-0.7881 -6.4299,-2.1081l15.1676,-15.1509c1.3215,1.7929 2.1105,4.0192 2.1105,6.4229z" fill="#6107b5" id="svg_7"/>
            <path d="m33.3925,31.346l2.2682,-5.4575l4.3393,5.0043l-6.6075,0.4532z" fill="#6107b5" id="svg_8"/>
            <path d="m35.6607,21.5738l-2.2485,-5.4772l6.5878,0.4728l-4.3393,5.0044z" fill="#6107b5" id="svg_9"/>
            <path d="m24.8521,36.6655l5.4635,-2.2657l-0.4734,6.6002l-4.9901,-4.3345z" fill="#6107b5" id="svg_10"/>
            <path d="m15.0493,34.3998l5.4635,2.2657l-4.9901,4.3148l-0.4734,-6.5805z" fill="#6107b5" id="svg_11"/>
        </g>
    </g>
</svg>